<?xml version="1.0" encoding="UTF-8"?>
<svg xmlns="http://www.w3.org/2000/svg" viewBox="0 0 5256 1420" width="5256" height="1420" role="img" aria-label="coralticker">
  <title>coralticker</title>
  <path fill="#1A1814" transform="translate(40.00 1085.00) scale(1 -1)" d="M281 -12Q222 -12 176.0 7.5Q130 27 99.0 62.5Q68 98 52.0 149.0Q36 200 36 263Q36 326 52.0 376.5Q68 427 99.0 463.0Q130 499 176.0 518.0Q222 537 281 537Q361 537 414.5 501.0Q468 465 491 400L371 348Q364 378 342.0 399.0Q320 420 281 420Q236 420 213.0 390.5Q190 361 190 311V213Q190 163 213.0 134.0Q236 105 281 105Q321 105 344.5 126.5Q368 148 379 183L494 133Q468 58 413.5 23.0Q359 -12 281 -12Z"/>
  <path fill="#1A1814" transform="translate(557.00 1085.00) scale(1 -1)" d="M282 -12Q224 -12 178.5 7.0Q133 26 101.5 62.0Q70 98 53.0 149.0Q36 200 36 263Q36 326 53.0 377.0Q70 428 101.5 463.5Q133 499 178.5 518.0Q224 537 282 537Q340 537 385.5 518.0Q431 499 462.5 463.5Q494 428 511.0 377.0Q528 326 528 263Q528 200 511.0 149.0Q494 98 462.5 62.0Q431 26 385.5 7.0Q340 -12 282 -12ZM282 105Q326 105 350.0 132.0Q374 159 374 209V316Q374 366 350.0 393.0Q326 420 282 420Q238 420 214.0 393.0Q190 366 190 316V209Q190 159 214.0 132.0Q238 105 282 105Z"/>
  <path fill="#1A1814" transform="translate(1121.00 1085.00) scale(1 -1)" d="M69 0V525H217V411H222Q226 433 236.0 453.5Q246 474 262.5 490.0Q279 506 302.0 515.5Q325 525 356 525H382V387H345Q280 387 248.5 370.0Q217 353 217 307V0Z"/>
  <path fill="#1A1814" transform="translate(1525.00 1085.00) scale(1 -1)" d="M457 0Q417 0 390.5 25.0Q364 50 357 92H351Q339 41 298.0 14.5Q257 -12 197 -12Q118 -12 76.0 30.0Q34 72 34 141Q34 224 94.5 264.5Q155 305 259 305H342V338Q342 376 322.0 398.5Q302 421 255 421Q211 421 185.0 402.0Q159 383 142 359L54 437Q86 484 134.5 510.5Q183 537 266 537Q378 537 434.0 488.0Q490 439 490 345V115H539V0ZM252 91Q289 91 315.5 107.0Q342 123 342 159V221H270Q183 221 183 162V147Q183 118 201.0 104.5Q219 91 252 91Z"/>
  <path fill="#1A1814" transform="translate(2094.00 1085.00) scale(1 -1)" d="M216 0Q140 0 104.5 37.0Q69 74 69 144V740H217V115H283V0Z"/>
  <path fill="#1A1814" transform="translate(2397.00 1085.00) scale(1 -1)" d="M199 0Q157 0 135.5 23.5Q114 47 114 85V446H29V516H77Q103 516 112.5 526.5Q122 537 122 563V659H194V516H307V446H194V70H299V0Z"/>
  <path fill="#1A1814" transform="translate(2748.00 1085.00) scale(1 -1)" d="M125 637Q99 637 87.5 649.5Q76 662 76 682V695Q76 715 87.5 727.5Q99 740 125 740Q151 740 162.5 727.5Q174 715 174 695V682Q174 662 162.5 649.5Q151 637 125 637ZM85 516H165V0H85Z"/>
  <path fill="#1A1814" transform="translate(2998.00 1085.00) scale(1 -1)" d="M277 -12Q223 -12 180.0 7.0Q137 26 107.5 61.0Q78 96 62.5 146.0Q47 196 47 258Q47 320 62.5 370.0Q78 420 107.5 455.0Q137 490 180.0 509.0Q223 528 277 528Q354 528 400.5 494.5Q447 461 470 407L403 373Q389 413 357.0 435.0Q325 457 277 457Q241 457 214.0 445.5Q187 434 169.0 413.5Q151 393 142.0 364.5Q133 336 133 302V214Q133 146 169.5 102.5Q206 59 277 59Q374 59 417 149L475 110Q450 54 400.5 21.0Q351 -12 277 -12Z"/>
  <path fill="#1A1814" transform="translate(3501.00 1085.00) scale(1 -1)" d="M85 740H165V271H169L248 359L394 516H491L300 312L510 0H413L242 263L165 184V0H85Z"/>
  <path fill="#1A1814" transform="translate(4028.00 1085.00) scale(1 -1)" d="M279 -12Q226 -12 183.5 7.0Q141 26 110.5 61.5Q80 97 63.5 146.5Q47 196 47 258Q47 319 63.5 369.0Q80 419 110.5 454.5Q141 490 183.5 509.0Q226 528 279 528Q331 528 372.0 509.0Q413 490 442.0 456.5Q471 423 486.5 377.0Q502 331 502 276V238H131V214Q131 181 141.5 152.5Q152 124 171.5 103.0Q191 82 219.5 70.0Q248 58 284 58Q333 58 369.5 81.0Q406 104 426 147L483 106Q458 53 405.0 20.5Q352 -12 279 -12ZM279 461Q246 461 219.0 449.5Q192 438 172.5 417.0Q153 396 142.0 367.5Q131 339 131 305V298H416V309Q416 378 378.5 419.5Q341 461 279 461Z"/>
  <path fill="#1A1814" transform="translate(4577.00 1085.00) scale(1 -1)" d="M85 0V516H165V421H170Q184 458 220.0 487.0Q256 516 319 516H350V436H303Q238 436 201.5 411.5Q165 387 165 350V0Z"/>
  <path fill="#1B5E20" transform="translate(4944.00 1085.00) scale(1 -1)" d="M136 -12Q104 -12 89.5 4.0Q75 20 75 46V59Q75 85 89.5 101.0Q104 117 136 117Q168 117 182.5 101.0Q197 85 197 59V46Q197 20 182.5 4.0Q168 -12 136 -12Z"/>
</svg>
